<svg xmlns="http://www.w3.org/2000/svg" viewBox="0 0 800 500" role="img" aria-label="ภาพประกอบ calendar"><title>ภาพประกอบ calendar</title><rect width="800" height="500" fill="#E4EAF1"/><rect x="180" y="70" width="440" height="370" rx="14" fill="#FFFFFF" stroke="#1B3A5C" stroke-width="4"/><rect x="180" y="70" width="440" height="70" rx="14" fill="#1B3A5C" /><rect x="180" y="110" width="440" height="30" rx="0" fill="#1B3A5C" /><rect x="210" y="170" width="56" height="44" rx="6" fill="#E4EAF1" /><rect x="210" y="232" width="56" height="44" rx="6" fill="#E4EAF1" /><rect x="210" y="294" width="56" height="44" rx="6" fill="#E4EAF1" /><rect x="210" y="356" width="56" height="44" rx="6" fill="#E4EAF1" /><rect x="288" y="170" width="56" height="44" rx="6" fill="#E4EAF1" /><rect x="288" y="232" width="56" height="44" rx="6" fill="#E4EAF1" /><rect x="288" y="294" width="56" height="44" rx="6" fill="#E4EAF1" /><rect x="288" y="356" width="56" height="44" rx="6" fill="#E4EAF1" /><rect x="366" y="170" width="56" height="44" rx="6" fill="#E4EAF1" /><rect x="366" y="232" width="56" height="44" rx="6" fill="#C97A26" /><rect x="366" y="294" width="56" height="44" rx="6" fill="#E4EAF1" /><rect x="366" y="356" width="56" height="44" rx="6" fill="#E4EAF1" /><rect x="444" y="170" width="56" height="44" rx="6" fill="#E4EAF1" /><rect x="444" y="232" width="56" height="44" rx="6" fill="#E4EAF1" /><rect x="444" y="294" width="56" height="44" rx="6" fill="#E4EAF1" /><rect x="444" y="356" width="56" height="44" rx="6" fill="#E4EAF1" /><rect x="522" y="170" width="56" height="44" rx="6" fill="#E4EAF1" /><rect x="522" y="232" width="56" height="44" rx="6" fill="#E4EAF1" /><rect x="522" y="294" width="56" height="44" rx="6" fill="#E4EAF1" /><rect x="522" y="356" width="56" height="44" rx="6" fill="#E4EAF1" /><rect x="250" y="40" width="14" height="50" rx="7" fill="#C97A26" /><rect x="536" y="40" width="14" height="50" rx="7" fill="#C97A26" /></svg>