<svg xmlns="http://www.w3.org/2000/svg" viewBox="0 0 800 500" role="img" aria-label="ภาพประกอบ การเขียนโปรแกรมและพัฒนาซอฟต์แวร์ (IT)"><title>ภาพประกอบ การเขียนโปรแกรมและพัฒนาซอฟต์แวร์ (IT)</title><rect width="800" height="500" fill="#E4EAF1"/><rect x="90" y="60" width="620" height="380" rx="14" fill="#102538" /><rect x="90" y="60" width="620" height="38" rx="14" fill="#2E5680" /><rect x="90" y="84" width="620" height="14" rx="0" fill="#2E5680" /><circle cx="120" cy="79" r="7" fill="#E06C5B" /><circle cx="144" cy="79" r="7" fill="#E8B84B" /><circle cx="168" cy="79" r="7" fill="#5FB07A" /><rect x="148" y="122" width="180" height="14" rx="7" fill="#7CB7FF" opacity=".9"/><rect x="148" y="152" width="260" height="14" rx="7" fill="#C97A26" opacity=".9"/><rect x="176" y="182" width="210" height="14" rx="7" fill="#9AD1A5" opacity=".9"/><rect x="176" y="212" width="140" height="14" rx="7" fill="#E9EEF5" opacity=".9"/><rect x="204" y="242" width="300" height="14" rx="7" fill="#7CB7FF" opacity=".9"/><rect x="204" y="272" width="90" height="14" rx="7" fill="#C97A26" opacity=".9"/><rect x="176" y="302" width="240" height="14" rx="7" fill="#E9EEF5" opacity=".9"/><rect x="148" y="332" width="200" height="14" rx="7" fill="#9AD1A5" opacity=".9"/><rect x="148" y="362" width="120" height="14" rx="7" fill="#7CB7FF" opacity=".9"/><rect x="120" y="392" width="60" height="14" rx="7" fill="#C97A26" opacity=".9"/><rect x="560" y="130" width="130" height="230" rx="16" fill="#2E5680" /><rect x="572" y="150" width="106" height="170" rx="8" fill="#102538" /><circle cx="625" cy="340" r="8" fill="#102538" /><rect x="582" y="165" width="86" height="10" rx="5" fill="#C97A26" /><rect x="582" y="190" width="60" height="10" rx="5" fill="#7CB7FF" /><rect x="582" y="215" width="76" height="10" rx="5" fill="#E9EEF5" /></svg>